<svg xmlns="http://www.w3.org/2000/svg" width="74" height="72" viewBox="0 0 74 72" fill="none">
  <path d="M0.5 11.1504C0.5 5.26837 5.26837 0.5 11.1504 0.5H38C57.6061 0.5 73.5 16.3939 73.5 36C73.5 55.6061 57.6061 71.5 38 71.5H37C16.8416 71.5 0.5 55.1584 0.5 35V11.1504Z" fill="#E5E9E7" stroke="url(#paint0_linear_145_254)"/>
  <rect x="34.25" y="18.25" width="4.5" height="31.2647" rx="2.25" fill="url(#paint1_linear_145_254)" stroke="url(#paint2_linear_145_254)" stroke-width="0.5"/>
  <rect x="22.25" y="34.6912" width="4.79412" height="29.5" rx="2.39706" transform="rotate(-90 22.25 34.6912)" fill="url(#paint3_linear_145_254)" stroke="url(#paint4_linear_145_254)" stroke-width="0.5"/>
  <defs>
    <linearGradient id="paint0_linear_145_254" x1="37" y1="0" x2="37" y2="72" gradientUnits="userSpaceOnUse">
      <stop stop-color="#21A89A"/>
      <stop offset="1" stop-color="#7CD858"/>
    </linearGradient>
    <linearGradient id="paint1_linear_145_254" x1="36.5" y1="18" x2="36.5" y2="49.7647" gradientUnits="userSpaceOnUse">
      <stop stop-color="#21A89A"/>
      <stop offset="1" stop-color="#7CD858"/>
    </linearGradient>
    <linearGradient id="paint2_linear_145_254" x1="36.5" y1="18" x2="36.5" y2="49.7647" gradientUnits="userSpaceOnUse">
      <stop stop-color="#21A89A"/>
      <stop offset="1" stop-color="#7CD858"/>
    </linearGradient>
    <linearGradient id="paint3_linear_145_254" x1="24.6471" y1="34.9412" x2="24.6471" y2="64.9412" gradientUnits="userSpaceOnUse">
      <stop stop-color="#21A89A"/>
      <stop offset="1" stop-color="#7CD858"/>
    </linearGradient>
    <linearGradient id="paint4_linear_145_254" x1="24.6471" y1="34.9412" x2="24.6471" y2="64.9412" gradientUnits="userSpaceOnUse">
      <stop stop-color="#21A89A"/>
      <stop offset="1" stop-color="#7CD858"/>
    </linearGradient>
  </defs>
</svg>